<svg id="Capa_1" enable-background="new 0 0 512 512" height="512" viewBox="0 0 512 512" width="512" xmlns="http://www.w3.org/2000/svg"><g><g><circle cx="256" cy="256" fill="#57e5a8" r="256"/></g><path d="m135.632 455.615 45.145 45.145c23.786 7.301 49.044 11.24 75.223 11.24 141.385 0 256-114.615 256-256 0-26.104-3.918-51.291-11.179-75.018l-136.37-136.37z" fill="#2dba7a"/><g><g><path d="m255.849 260.32h-108.883v-215.707h108.883l86.534 97.571z" fill="#9f5f4b"/><path d="m255.849 44.613h108.601v215.708h-108.601z" fill="#885140"/><path d="m162.649 60.295h76.451v76.451h-76.451z" fill="#885140"/><path d="m271.925 60.295h76.451v76.451h-76.451z" fill="#7d4b3b"/><path d="m162.649 152.943h76.451v76.451h-76.451z" fill="#885140"/><path d="m271.925 152.943h76.451v76.451h-76.451z" fill="#7d4b3b"/></g><g><g><path d="m255.864 455.615h-120.232v-210.023l120.232 10.99 95.553 84.01z" fill="#4253ce"/><path d="m375.785 455.615h-119.921v-199.033l119.921-10.99z" fill="#2a42bc"/></g><g><path d="m269.44 354.515-14.658-34.929c-5.706-8.997-15.752-14.971-27.195-14.971-17.773 0-32.18 14.408-32.18 32.18 0 8.297 3.141 15.861 8.298 21.567l51.077 55.812z" fill="#ff5f96"/><path d="m305.859 358.364c5.156-5.707 8.297-13.27 8.297-21.567 0-17.773-14.408-32.18-32.18-32.18-11.443 0-21.489 5.973-27.195 14.971v94.589z" fill="#d72878"/></g></g><path d="m135.632 245.592 120.224 29.457 28.613-12.625-28.605-16.832z" fill="#7584f2"/><path d="m255.856 275.049 145.144 35.562-25.215-65.019h-119.921z" fill="#4253ce"/></g></g></svg>