<svg id="Layer_1" height="512" viewBox="0 0 512 512" width="512" xmlns="http://www.w3.org/2000/svg" data-name="Layer 1"><path d="m40 400h-32v-32h441.42a54.58 54.58 0 0 1 54.58 54.58v26.84a54.58 54.58 0 0 1 -54.58 54.58h-441.42v-32h32" fill="#a95a18"/><path d="m472 336h32v32h-441.42a54.58 54.58 0 0 1 -54.58-54.58v-26.84a54.58 54.58 0 0 1 54.58-54.58h441.42v32h-32" fill="#f69038"/><path d="m40 400h402a30 30 0 0 1 30 30v11.431a30 30 0 0 1 -30 30h-402a0 0 0 0 1 0 0v-71.431a0 0 0 0 1 0 0z" fill="#90e3f5"/><path d="m40 424h208v16h-208z" fill="#fcfbfa"/><path d="m70 264h402v72h-402a30 30 0 0 1 -30-30v-11.431c0-16.569 13.431-30.569 30-30.569z" fill="#90e3f5"/><path d="m184 296h208v16h-208z" fill="#fcfbfa"/><circle cx="148" cy="156" fill="#90e3f5" r="76"/><circle cx="340" cy="156" fill="#90e3f5" r="76"/><g fill="#087182"><path d="m224 152h40v16h-40z"/><path d="m416 152h24v16h-24z"/><path d="m48 152h24v16h-24z"/></g><path d="m112 156h-16a52.059 52.059 0 0 1 52-52v16a36.041 36.041 0 0 0 -36 36z" fill="#fcfbfa"/><path d="m304 156h-16a52.059 52.059 0 0 1 52-52v16a36.041 36.041 0 0 0 -36 36z" fill="#fcfbfa"/><circle cx="464" cy="72" fill="#90e3f5" r="24"/><path d="m33.009 43.636 13.677-25.009 13.678 25.009 25.009 13.678-25.009 13.677-13.678 25.009-13.677-25.009-25.009-13.677z" fill="#fe9e4a"/><path d="m224 64h16v16h-16z" fill="#90e3f5"/><path d="m296 32h16v16h-16z" fill="#fe9e4a"/><path d="m70 264c-14.321 0-26.291 10.463-29.276 24h431.276v-24z" fill="#232626" opacity=".2"/><path d="m442.724 400c14.321 0 26.291 10.463 29.276 24h-431.276v-24z" fill="#232626" opacity=".2"/></svg>